<svg xmlns="http://www.w3.org/2000/svg" width="1024" height="1024" viewBox="0 0 1024 1024" version="1.1"><path d="M 494 153.598 C 312.981 165.965, 176.431 293.555, 154.842 470.500 L 153.500 481.500 153.511 511 L 153.522 540.500 155.331 554 C 179.981 737.899, 330.228 869.793, 514.500 869.295 L 539.500 869.227 553.500 867.567 C 788.382 839.726, 932.892 598.457, 846.730 378 C 791.962 237.865, 643.454 143.387, 494 153.598 M 338.460 341.731 L 317.420 342.039 313.168 364.269 C 307.381 394.520, 281.459 527.507, 267.453 598.794 C 261.154 630.855, 256 657.743, 256 658.544 L 256 660 290 660 L 324 660 324 658.888 C 324 658.277, 329.868 623.290, 337.040 581.138 C 344.213 538.987, 351.874 493.925, 354.066 481 C 356.258 468.075, 358.308 456.228, 358.622 454.673 L 359.193 451.846 387.205 511.173 C 402.611 543.803, 420.499 581.750, 426.955 595.500 L 438.693 620.500 461.672 620.768 L 484.651 621.036 516.758 545.768 C 544.354 481.078, 561.197 441.253, 595.958 358.500 L 602.679 342.500 569.153 342.236 C 550.714 342.092, 535.309 342.317, 534.920 342.736 C 534.532 343.156, 527.800 357.225, 519.961 374 C 512.122 390.775, 498 420.925, 488.579 441 C 479.158 461.075, 468.086 484.793, 463.975 493.707 C 454.894 513.396, 457.150 513.941, 445.516 489.250 C 432 460.567, 392.811 376.910, 383.798 357.500 L 376.368 341.500 367.934 341.461 C 363.295 341.440, 350.032 341.561, 338.460 341.731 M 652.652 344.754 C 650.219 348.691, 619.960 423.689, 620.317 424.898 C 620.577 425.779, 630.063 450.521, 641.395 479.879 C 652.728 509.237, 662 533.425, 662 533.629 C 662 533.833, 643.861 534, 621.690 534 L 581.380 534 569.757 561.299 C 563.364 576.313, 557.991 589.249, 557.817 590.045 L 557.500 591.493 620.341 591.555 L 683.182 591.617 696.291 625.809 L 709.400 660 743.533 660 C 784.035 660, 780.090 662.441, 772.277 642.216 C 756.501 601.376, 725.402 519.702, 682.524 406.500 C 670.233 374.050, 659.863 346.712, 659.481 345.750 L 658.786 344 655.952 344 C 654.393 344, 652.908 344.339, 652.652 344.754" stroke="none" fill="#1b3353" fill-rule="evenodd"/><path d="M 0 512.001 L 0 1024.002 512.250 1023.751 L 1024.500 1023.500 1024.751 511.750 L 1025.002 0 512.501 0 L 0 0 0 512.001 M 0.496 512.500 C 0.496 794.100, 0.610 909.151, 0.750 768.168 C 0.890 627.186, 0.890 396.786, 0.750 256.168 C 0.610 115.551, 0.496 230.900, 0.496 512.500 M 494 153.598 C 312.981 165.965, 176.431 293.555, 154.842 470.500 L 153.500 481.500 153.511 511 L 153.522 540.500 155.331 554 C 179.981 737.899, 330.228 869.793, 514.500 869.295 L 539.500 869.227 553.500 867.567 C 788.382 839.726, 932.892 598.457, 846.730 378 C 791.962 237.865, 643.454 143.387, 494 153.598 M 338.460 341.731 L 317.420 342.039 313.168 364.269 C 307.381 394.520, 281.459 527.507, 267.453 598.794 C 261.154 630.855, 256 657.743, 256 658.544 L 256 660 290 660 L 324 660 324 658.888 C 324 658.277, 329.868 623.290, 337.040 581.138 C 344.213 538.987, 351.874 493.925, 354.066 481 C 356.258 468.075, 358.308 456.228, 358.622 454.673 L 359.193 451.846 387.205 511.173 C 402.611 543.803, 420.499 581.750, 426.955 595.500 L 438.693 620.500 461.672 620.768 L 484.651 621.036 516.758 545.768 C 544.354 481.078, 561.197 441.253, 595.958 358.500 L 602.679 342.500 569.153 342.236 C 550.714 342.092, 535.309 342.317, 534.920 342.736 C 534.532 343.156, 527.800 357.225, 519.961 374 C 512.122 390.775, 498 420.925, 488.579 441 C 479.158 461.075, 468.086 484.793, 463.975 493.707 C 454.894 513.396, 457.150 513.941, 445.516 489.250 C 432 460.567, 392.811 376.910, 383.798 357.500 L 376.368 341.500 367.934 341.461 C 363.295 341.440, 350.032 341.561, 338.460 341.731 M 652.652 344.754 C 650.219 348.691, 619.960 423.689, 620.317 424.898 C 620.577 425.779, 630.063 450.521, 641.395 479.879 C 652.728 509.237, 662 533.425, 662 533.629 C 662 533.833, 643.861 534, 621.690 534 L 581.380 534 569.757 561.299 C 563.364 576.313, 557.991 589.249, 557.817 590.045 L 557.500 591.493 620.341 591.555 L 683.182 591.617 696.291 625.809 L 709.400 660 743.533 660 C 784.035 660, 780.090 662.441, 772.277 642.216 C 756.501 601.376, 725.402 519.702, 682.524 406.500 C 670.233 374.050, 659.863 346.712, 659.481 345.750 L 658.786 344 655.952 344 C 654.393 344, 652.908 344.339, 652.652 344.754" stroke="none" fill="#fbfbfb" fill-rule="evenodd"/></svg>